<?xml version="1.0" standalone="no"?><!DOCTYPE svg PUBLIC "-//W3C//DTD SVG 1.1//EN" "http://www.w3.org/Graphics/SVG/1.1/DTD/svg11.dtd"><svg t="1708419205751" class="svg-icon" viewBox="0 0 1024 1024" version="1.1" xmlns="http://www.w3.org/2000/svg" p-id="12356" xmlns:xlink="http://www.w3.org/1999/xlink" width="16" height="16"><path d="M291.84 258.56c10.24 0 87.04-7.68-2.56-130.56 0 0-35.84 46.08-40.96 92.16C245.76 250.88 273.92 258.56 291.84 258.56z" p-id="12357"></path><path d="M734.72 258.56c10.24 0 87.04-7.68-2.56-130.56 0 0-35.84 46.08-40.96 92.16C688.64 250.88 716.8 258.56 734.72 258.56z" p-id="12358"></path><path d="M509.44 181.76c10.24 0 87.04-7.68-2.56-130.56 0 0-35.84 46.08-40.96 92.16C463.36 174.08 491.52 181.76 509.44 181.76z" p-id="12359"></path><path d="M1003.52 783.36l-71.68 0 0-307.2c0-46.08-35.84-81.92-81.92-81.92l-64 0 0-81.92c0-15.36-12.8-28.16-28.16-28.16l-40.96 0c-15.36 0-28.16 12.8-28.16 28.16l0 81.92-125.44 0L563.2 232.96c0-15.36-12.8-28.16-28.16-28.16L486.4 204.8c-15.36 0-28.16 12.8-28.16 28.16l0 161.28-117.76 0 0-81.92c0-15.36-12.8-28.16-28.16-28.16l-40.96 0c-15.36 0-28.16 12.8-28.16 28.16l0 81.92L181.76 394.24c-46.08 0-81.92 35.84-81.92 81.92l0 307.2L10.24 783.36c-5.12 0-10.24 5.12-10.24 10.24l0 81.92c0 51.2 43.52 94.72 94.72 94.72l832 0c53.76 0 97.28-43.52 97.28-97.28l0-71.68C1024 793.6 1013.76 783.36 1003.52 783.36zM151.04 476.16c0-17.92 15.36-30.72 30.72-30.72l665.6 0c17.92 0 30.72 15.36 30.72 30.72l0 307.2L151.04 783.36 151.04 476.16zM972.8 875.52c0 25.6-20.48 46.08-46.08 46.08L94.72 921.6C71.68 921.6 51.2 901.12 51.2 878.08l0-43.52 51.2 0c0 0 0 0 0 0l56.32 0c0 0 0 0 0 0L972.8 834.56 972.8 875.52z" p-id="12360"></path></svg>