<svg t="1725852576509" class="svg-icon" viewBox="0 0 1024 1024" version="1.1" xmlns="http://www.w3.org/2000/svg" p-id="1137" width="16" height="16"><path d="M570.181818 512l197.818182-197.818182c13.963636-13.963636 13.963636-34.909091 0-48.872727-13.963636-13.963636-34.909091-13.963636-48.872727 0l-197.818182 197.818182-197.818182-197.818182c-13.963636-13.963636-34.909091-13.963636-48.872727 0-13.963636 13.963636-13.963636 34.909091 0 48.872727l197.818182 197.818182-197.818182 197.818182c-13.963636 13.963636-13.963636 34.909091 0 48.872727 13.963636 13.963636 34.909091 13.963636 48.872727 0l197.818182-197.818182 197.818182 197.818182c13.963636 13.963636 34.909091 13.963636 48.872727 0s13.963636-34.909091 0-48.872727L570.181818 512z" p-id="1138"></path></svg>