<?xml version="1.0" standalone="no"?><!DOCTYPE svg PUBLIC "-//W3C//DTD SVG 1.1//EN" "http://www.w3.org/Graphics/SVG/1.1/DTD/svg11.dtd"><svg fill="currentColor" t="1708415863848" class="svg-icon" viewBox="0 0 1024 1024" version="1.1" xmlns="http://www.w3.org/2000/svg" p-id="9203" xmlns:xlink="http://www.w3.org/1999/xlink" width="16" height="16"><path d="M944 146.5H80c-44.183 0-80 35.817-80 80v590c0 44.184 35.817 80 80 80h864c44.183 0 80-35.816 80-80v-590c0-44.183-35.817-80-80-80z m-864 50h864c16.542 0 30 13.458 30 30v60.605L512 539.324 50 287.104V226.5c0-16.542 13.458-30 30-30z m864 650H80c-16.542 0-30-13.458-30-30V344.07l449.958 245.646a24.896 24.896 0 0 0 12.049 3.059c4.074 0.013 8.208-0.97 12.036-3.06L974 344.07V816.5c0 16.542-13.458 30-30 30z" p-id="9204"></path></svg>