<svg t="1725605338077" class="svg-icon" viewBox="0 0 1024 1024" version="1.1" xmlns="http://www.w3.org/2000/svg" p-id="1477" width="16" height="16"><path d="M661.333333 384a21.333333 21.333333 0 0 1-15.086666-36.42L865.833333 128H746.666667a21.333333 21.333333 0 0 1 0-42.666667h170.926666a21.286667 21.286667 0 0 1 14.566667 6l0.486667 0.486667a21.286667 21.286667 0 0 1 6 14.566667V277.333333a21.333333 21.333333 0 0 1-42.666667 0V158.166667l-219.56 219.586666A21.266667 21.266667 0 0 1 661.333333 384z m256.233334 554.666667a21.286667 21.286667 0 0 0 14.566666-6l0.486667-0.486667a21.286667 21.286667 0 0 0 6-14.566667V746.666667a21.333333 21.333333 0 0 0-42.666667 0v119.166666l-219.533333-219.586666a21.333333 21.333333 0 0 0-30.173333 30.173333L865.833333 896H746.666667a21.333333 21.333333 0 0 0 0 42.666667h170.9zM377.753333 377.753333a21.333333 21.333333 0 0 0 0-30.173333L158.166667 128H277.333333a21.333333 21.333333 0 0 0 0-42.666667H106.406667a21.286667 21.286667 0 0 0-14.566667 6l-0.486667 0.486667a21.286667 21.286667 0 0 0-6 14.566667V277.333333a21.333333 21.333333 0 0 0 42.666667 0V158.166667l219.56 219.586666a21.333333 21.333333 0 0 0 30.173333 0zM106.666667 938.666667h170.666666a21.333333 21.333333 0 0 0 0-42.666667H158.166667l219.586666-219.58a21.333333 21.333333 0 0 0-30.173333-30.173333L128 865.833333V746.666667a21.333333 21.333333 0 0 0-42.666667 0v170.926666a21.286667 21.286667 0 0 0 6 14.566667l0.486667 0.486667a21.286667 21.286667 0 0 0 14.566667 6h0.28z" p-id="1478"></path></svg>