<?xml version="1.0" standalone="no"?><!DOCTYPE svg PUBLIC "-//W3C//DTD SVG 1.1//EN" "http://www.w3.org/Graphics/SVG/1.1/DTD/svg11.dtd"><svg t="1708415760887" class="svg-icon" viewBox="0 0 1024 1024" version="1.1" xmlns="http://www.w3.org/2000/svg" p-id="6287" xmlns:xlink="http://www.w3.org/1999/xlink" width="16" height="16"><path d="M580.682 37.333v77.607h267.744l-189.361 188.586c-65.164-51.291-148.417-82.264-238.904-82.264-0.044 0-0.089 0-0.133 0-214.299 0-388.028 173.729-388.028 388.036 0 214.306 173.729 388.036 388.036 388.036 214.277-0.039 387.967-173.753 387.967-388.036 0-90.891-31.249-174.482-83.589-240.617l189.204-187.775v267.744h77.607v-411.318zM420.036 904.205c-161.842-2.576-292.357-133.106-294.905-294.711 2.573-162.038 133.104-292.553 294.708-295.102 163.069-0.002 295.103 132.032 295.103 294.905 0 162.873-132.035 294.907-294.907 294.907zM914.393 114.94z" p-id="6288"></path></svg>