<?xml version="1.0" standalone="no"?><!DOCTYPE svg PUBLIC "-//W3C//DTD SVG 1.1//EN" "http://www.w3.org/Graphics/SVG/1.1/DTD/svg11.dtd"><svg t="1708415742677" class="svg-icon" viewBox="0 0 1024 1024" version="1.1" xmlns="http://www.w3.org/2000/svg" p-id="6113" width="16" height="16" xmlns:xlink="http://www.w3.org/1999/xlink"><path d="M878.832 155.064c-68.162-62.334-159.316-100.523-259.389-100.523-212.587 0-384.923 172.336-384.923 384.923 0 86.608 28.604 166.537 76.88 230.852l-89.247 87.538-135.493-136.263-54.659 54.659 136.263 136.263-136.263 135.493 54.659 54.659 135.493-136.263 136.263 136.263 54.659-54.659-136.263-135.493 88.533-88.533c63.282 47.468 143.133 76.012 229.651 76.012 212.587 0 384.923-172.336 384.923-384.923 0-100.367-38.413-191.762-101.34-260.285zM824.943 645.457c-55.714 55.654-132.65 90.072-217.625 90.072-170.070 0-307.939-137.869-307.939-307.939 0-170.070 137.869-307.939 307.939-307.939 84.975 0 161.911 34.418 217.627 90.075 55.795 55.735 90.311 132.769 90.311 217.864 0 85.095-34.516 162.128-90.311 217.864z" p-id="6114"></path></svg>