<?xml version="1.0" standalone="no"?><!DOCTYPE svg PUBLIC "-//W3C//DTD SVG 1.1//EN" "http://www.w3.org/Graphics/SVG/1.1/DTD/svg11.dtd"><svg t="1708415785228" class="svg-icon" viewBox="0 0 1024 1024" version="1.1" xmlns="http://www.w3.org/2000/svg" p-id="6427" xmlns:xlink="http://www.w3.org/1999/xlink" width="16" height="16"><path d="M694.856548 18.286694q0-7.972555 5.11999-13.165688t13.165688-5.11999l164.571099 0q14.84797 0 25.746234 10.825121t10.825121 25.746234l0 164.571099q0 7.972555-5.11999 13.165688t-13.165688 5.11999l-36.571355 0q-7.972555 0-13.165688-5.11999t-5.11999-13.165688l0-76.580418-145.115138 145.70028q71.972427 90.258105 71.972427 205.165304 0 126.317462-84.260403 219.720703t-208.310441 107.154071l0 75.410135 54.857033 0q7.972555 0 13.165688 5.11999t5.11999 13.165688l0 36.571355q0 7.972555-5.11999 13.165688t-13.165688 5.11999l-54.857033 0 0 54.857033q0 7.972555-5.11999 13.165688t-13.165688 5.11999l-36.571355 0q-7.972555 0-13.165688-5.11999t-5.11999-13.165688l0-54.857033-54.857033 0q-7.972555 0-13.165688-5.11999t-5.11999-13.165688l0-36.571355q0-7.972555 5.11999-13.165688t13.165688-5.11999l54.857033 0 0-75.410135q-85.138115-9.142839-154.550548-58.879882t-106.56893-127.707173-30.281082-166.545953q9.142839-116.589481 91.428389-202.020167t198.289889-98.596374q67.437579-7.972555 130.267168 10.825121t113.151774 58.879882l145.70028-145.115138-76.580418 0q-7.972555 0-13.165688-5.11999t-5.11999-13.165688l0-36.571355zM438.85706 731.428124q105.691217 0 180.881924-75.117564t75.117564-180.881924-75.117564-180.881924-180.881924-75.117564-180.881924 75.117564-75.117564 180.881924 75.117564 180.881924 180.881924 75.117564z" p-id="6428"></path></svg>