<svg t="1725605405964" class="svg-icon" viewBox="0 0 1024 1024" version="1.1" xmlns="http://www.w3.org/2000/svg" p-id="1626" width="16" height="16"><path d="M661.333333 384h-0.26a21.286667 21.286667 0 0 1-14.566666-6l-0.486667-0.486667a21.286667 21.286667 0 0 1-6-14.566666V192a21.333333 21.333333 0 0 1 42.666667 0v119.166667l219.58-219.586667a21.333333 21.333333 0 1 1 30.173333 30.173333L712.833333 341.333333H832a21.333333 21.333333 0 0 1 0 42.666667H661.333333z m271.086667 548.42a21.333333 21.333333 0 0 0 0-30.173333L712.833333 682.666667H832a21.333333 21.333333 0 0 0 0-42.666667H661.073333a21.286667 21.286667 0 0 0-14.566666 6l-0.486667 0.486667a21.286667 21.286667 0 0 0-6 14.566666V832a21.333333 21.333333 0 0 0 42.666667 0v-119.166667l219.58 219.586667a21.333333 21.333333 0 0 0 30.173333 0zM362.9 384a21.286667 21.286667 0 0 0 14.566667-6l0.486666-0.486667a21.286667 21.286667 0 0 0 6-14.566666V192a21.333333 21.333333 0 0 0-42.666666 0v119.166667l-219.533334-219.586667a21.333333 21.333333 0 0 0-30.173333 30.173333L311.166667 341.333333H192a21.333333 21.333333 0 0 0 0 42.666667h170.9z m-241.146667 548.42L341.333333 712.833333V832a21.333333 21.333333 0 0 0 42.666667 0V661.073333a21.286667 21.286667 0 0 0-6-14.566666l-0.486667-0.486667a21.286667 21.286667 0 0 0-14.566666-6H192a21.333333 21.333333 0 0 0 0 42.666667h119.166667l-219.586667 219.56a21.333333 21.333333 0 0 0 30.173333 30.173333z" p-id="1627"></path></svg>