<?xml version="1.0" standalone="no"?><!DOCTYPE svg PUBLIC "-//W3C//DTD SVG 1.1//EN" "http://www.w3.org/Graphics/SVG/1.1/DTD/svg11.dtd"><svg fill="currentColor" t="1727235548816" class="svg-icon" viewBox="0 0 1024 1024" version="1.1" xmlns="http://www.w3.org/2000/svg" p-id="2789" xmlns:xlink="http://www.w3.org/1999/xlink" width="64" height="64"><path d="M757.76 71.68H266.24a122.88 122.88 0 0 0-122.88 122.88v634.88a122.88 122.88 0 0 0 122.88 122.88h304.0256a20.48 20.48 0 0 0 0-40.96H266.24a81.92 81.92 0 0 1-81.92-81.92V194.56a81.92 81.92 0 0 1 81.92-81.92h491.52a81.92 81.92 0 0 1 81.92 81.92v448.512a20.48 20.48 0 1 0 40.96 0V194.56A122.88 122.88 0 0 0 757.76 71.68z" p-id="2790"></path><path d="M327.68 307.2h368.64a20.48 20.48 0 0 0 0-40.96H327.68a20.48 20.48 0 0 0 0 40.96zM716.8 440.32a20.48 20.48 0 0 0-20.48-20.48H327.68a20.48 20.48 0 0 0 0 40.96h368.64a20.48 20.48 0 0 0 20.48-20.48zM327.68 573.44a20.48 20.48 0 0 0 0 40.96h184.32a20.48 20.48 0 0 0 0-40.96zM860.16 783.36H752.64V675.84a20.48 20.48 0 0 0-40.96 0v107.52H604.16a20.48 20.48 0 0 0 0 40.96h107.52V931.84a20.48 20.48 0 0 0 40.96 0V824.32H860.16a20.48 20.48 0 0 0 0-40.96z" p-id="2791"></path></svg>