<?xml version="1.0" standalone="no"?><!DOCTYPE svg PUBLIC "-//W3C//DTD SVG 1.1//EN" "http://www.w3.org/Graphics/SVG/1.1/DTD/svg11.dtd"><svg t="1727235552022" class="svg-icon" viewBox="0 0 1024 1024" version="1.1" xmlns="http://www.w3.org/2000/svg" p-id="2939" xmlns:xlink="http://www.w3.org/1999/xlink" width="64" height="64"><path d="M661.577143 286.939429c0-19.456-17.115429-35.108571-38.253714-35.108572H276.114286c-21.211429 0-38.253714 15.652571-38.253715 35.108572 0 19.382857 17.115429 35.108571 38.253715 35.108571h347.209143c21.138286 0 38.253714-15.725714 38.253714-35.108571z m-385.682286 233.325714c-21.065143 0-38.180571 15.652571-38.180571 35.108571 0 19.382857 17.115429 35.108571 38.180571 35.108572h182.857143c21.211429 0 38.253714-15.725714 38.253714-35.108572 0-19.456-17.115429-35.108571-38.253714-35.108571h-182.857143zM1012.809143 963.949714l-78.701714-72.265143c34.889143-35.84 56.32-83.163429 56.32-135.021714 0-111.981714-99.035429-202.971429-221.037715-202.971428-121.929143 0-221.037714 91.136-221.037714 203.117714 0 111.908571 99.108571 202.971429 221.037714 202.971428 37.595429 0 73.142857-8.777143 104.155429-23.990857l84.845714 77.897143a39.862857 39.862857 0 0 0 27.209143 10.313143 40.228571 40.228571 0 0 0 27.209143-10.313143 33.206857 33.206857 0 0 0 0-49.737143z m-387.803429-207.140571c0-73.142857 64.731429-132.608 144.384-132.608 79.725714 0 144.457143 59.465143 144.457143 132.608s-64.731429 132.608-144.457143 132.608c-79.652571 0-144.384-59.465143-144.384-132.608z" fill="currentColor" p-id="2940"></path><path d="M495.323429 922.989714H148.114286c-39.424 0-71.314286-29.403429-71.314286-65.462857V135.826286c0-36.205714 32.036571-65.462857 71.314286-65.462857h712.850285c39.497143 0 71.314286 29.403429 71.314286 65.462857V496.64c0 19.456 17.115429 35.108571 38.253714 35.108571 21.138286 0 38.253714-15.652571 38.253715-35.108571V135.826286C1008.786286 61.001143 942.372571 0 860.818286 0H147.968C66.267429 0 0 61.001143 0 135.826286v721.700571c0 74.971429 66.413714 135.826286 147.968 135.826286H495.177143c21.138286 0 38.253714-15.725714 38.253714-35.108572 0.146286-19.529143-16.969143-35.254857-38.034286-35.254857z" fill="currentColor" p-id="2941"></path></svg>