<?xml version="1.0" standalone="no"?><!DOCTYPE svg PUBLIC "-//W3C//DTD SVG 1.1//EN" "http://www.w3.org/Graphics/SVG/1.1/DTD/svg11.dtd"><svg t="1727312645102" class="svg-icon" viewBox="0 0 1024 1024" version="1.1" xmlns="http://www.w3.org/2000/svg" p-id="1833" xmlns:xlink="http://www.w3.org/1999/xlink" width="64" height="64"><path d="M85.333333 213.333333a85.333333 85.333333 0 0 1 85.333334-85.333333h682.666666a85.333333 85.333333 0 0 1 85.333334 85.333333v469.333334a85.333333 85.333333 0 0 1-85.333334 85.333333h-298.666666v85.333333h128a42.666667 42.666667 0 1 1 0 85.333334H341.333333a42.666667 42.666667 0 1 1 0-85.333334h128v-85.333333H170.666667a85.333333 85.333333 0 0 1-85.333334-85.333333V213.333333z m768 469.333334V213.333333H170.666667v469.333334h682.666666z" fill="currentColor" p-id="1834"></path></svg>