<?xml version="1.0" standalone="no"?><!DOCTYPE svg PUBLIC "-//W3C//DTD SVG 1.1//EN" "http://www.w3.org/Graphics/SVG/1.1/DTD/svg11.dtd"><svg fill="currentColor" t="1727312662508" class="svg-icon" viewBox="0 0 1024 1024" version="1.1" xmlns="http://www.w3.org/2000/svg" p-id="2430" xmlns:xlink="http://www.w3.org/1999/xlink" width="64" height="64"><path d="M885.76 465.92H138.24c-40.96 0-76.8-35.84-76.8-76.8V92.16C61.44 51.2 97.28 15.36 138.24 15.36h747.52c40.96 0 76.8 35.84 76.8 76.8v296.96c0 40.96-35.84 76.8-76.8 76.8z m0-76.8v40.96-40.96zM138.24 92.16v296.96h747.52V92.16H138.24z" p-id="2431"></path><path d="M680.96 204.8h102.4v71.68h-102.4zM885.76 1008.64H138.24c-40.96 0-76.8-35.84-76.8-76.8v-296.96c0-40.96 35.84-76.8 76.8-76.8h747.52c40.96 0 76.8 35.84 76.8 76.8v296.96c0 46.08-35.84 76.8-76.8 76.8zM138.24 634.88v296.96h747.52v-296.96H138.24z" p-id="2432"></path><path d="M345.4464 820.8384h-102.4v-71.68h102.4z" p-id="2433"></path></svg>