<?xml version="1.0" standalone="no"?>
<!DOCTYPE svg PUBLIC "-//W3C//DTD SVG 1.1//EN" "http://www.w3.org/Graphics/SVG/1.1/DTD/svg11.dtd">
<svg t="1702205684862" class="svg-icon" viewBox="0 0 1024 1024" version="1.1" xmlns="http://www.w3.org/2000/svg" p-id="932" xmlns:xlink="http://www.w3.org/1999/xlink" width="16" height="16" fill="currentColor">
  <path d="M786.021 923.229H237.98c-51.184 0-92.825-41.642-92.825-92.825v-313.88c0-11.046 8.954-20 20-20s20 8.954 20 20v313.879c0 29.128 23.697 52.825 52.825 52.825h548.041c29.127 0 52.824-23.697 52.824-52.825V516.524c0-11.046 8.954-20 20-20s20 8.954 20 20v313.879c0 51.184-41.641 92.826-92.824 92.826z" p-id="933"></path><path d="M975.865 516.494a19.934 19.934 0 0 1-14.142-5.858L552.987 101.901C542.039 90.953 527.483 84.923 512 84.923s-30.04 6.03-40.988 16.978L62.276 510.636c-7.811 7.81-20.474 7.81-28.284 0-7.811-7.811-7.811-20.474 0-28.284L442.728 73.617C461.231 55.113 485.833 44.923 512 44.923c26.168 0 50.769 10.19 69.272 28.694l408.735 408.735c7.81 7.811 7.81 20.474 0 28.284a19.933 19.933 0 0 1-14.142 5.858z" p-id="934"></path><path d="M512 674.016c-43.5 0-84.465-14.269-118.466-41.264-32.973-26.178-56.651-62.992-66.673-103.66-2.643-10.725 3.909-21.562 14.633-24.204 10.729-2.642 21.562 3.909 24.205 14.634 7.915 32.115 26.632 61.202 52.707 81.903 26.855 21.321 59.219 32.591 93.594 32.591s66.739-11.27 93.594-32.591c26.074-20.701 44.793-49.788 52.707-81.903 2.644-10.726 13.483-17.278 24.204-14.634 10.726 2.643 17.276 13.479 14.634 24.204-10.021 40.668-33.7 77.482-66.673 103.66C596.465 659.747 555.5 674.016 512 674.016z" p-id="935"></path>
</svg>