<?xml version="1.0" standalone="no"?><!DOCTYPE svg PUBLIC "-//W3C//DTD SVG 1.1//EN" "http://www.w3.org/Graphics/SVG/1.1/DTD/svg11.dtd"><svg fill="currentColor" t="1727312652491" class="svg-icon" viewBox="0 0 1024 1024" version="1.1" xmlns="http://www.w3.org/2000/svg" p-id="2131" xmlns:xlink="http://www.w3.org/1999/xlink" width="64" height="64"><path d="M849.92 983.04H174.08C102.4 983.04 46.08 926.72 46.08 855.04v-107.52c0-25.6 20.48-46.08 46.08-46.08s46.08 20.48 46.08 46.08v107.52c0 20.48 20.48 40.96 40.96 40.96h680.96c20.48 0 40.96-20.48 40.96-40.96V174.08c0-20.48-20.48-40.96-40.96-40.96H174.08c-20.48 0-40.96 20.48-40.96 40.96v158.72c0 25.6-20.48 46.08-46.08 46.08s-46.08-25.6-46.08-51.2v-153.6C40.96 102.4 102.4 40.96 174.08 40.96h680.96c71.68 0 128 56.32 128 128v680.96c0 71.68-61.44 133.12-133.12 133.12z" p-id="2132"></path><path d="M732.16 322.56h-158.72c-25.6 0-46.08 20.48-46.08 46.08s25.6 40.96 51.2 40.96h66.56l-102.4 112.64-102.4-87.04c-15.36-15.36-40.96-15.36-56.32 0l-209.92 158.72c-20.48 20.48-25.6 46.08-10.24 66.56 10.24 10.24 20.48 15.36 35.84 15.36 10.24 0 20.48-5.12 25.6-10.24l179.2-138.24 107.52 92.16c20.48 15.36 46.08 15.36 61.44-5.12l117.76-128v35.84c0 25.6 20.48 46.08 46.08 46.08s46.08-20.48 46.08-46.08v-153.6c-5.12-25.6-25.6-46.08-51.2-46.08z" p-id="2133"></path></svg>