<?xml version="1.0" standalone="no"?><!DOCTYPE svg PUBLIC "-//W3C//DTD SVG 1.1//EN" "http://www.w3.org/Graphics/SVG/1.1/DTD/svg11.dtd"><svg fill="currentColor" t="1727312666333" class="svg-icon" viewBox="0 0 1024 1024" version="1.1" xmlns="http://www.w3.org/2000/svg" p-id="2581" xmlns:xlink="http://www.w3.org/1999/xlink" width="64" height="64"><path d="M271.36 936.96c-10.24 0-15.36 0-20.48-5.12-15.36-10.24-20.48-20.48-20.48-35.84v-66.56H163.84c-71.68 0-133.12-56.32-133.12-133.12V220.16c0-71.68 56.32-133.12 133.12-133.12h696.32c71.68 0 133.12 56.32 133.12 133.12v481.28c0 71.68-56.32 133.12-133.12 133.12h-358.4l-209.92 102.4h-20.48zM163.84 174.08c-25.6 0-46.08 20.48-46.08 46.08v481.28c0 25.6 20.48 46.08 46.08 46.08h107.52c25.6 0 46.08 20.48 46.08 46.08v40.96l153.6-76.8c5.12-5.12 10.24-5.12 20.48-5.12h368.64c25.6 0 46.08-20.48 46.08-46.08V220.16c0-25.6-20.48-46.08-46.08-46.08H163.84z" p-id="2582"></path><path d="M732.16 501.76H291.84c-25.6 0-46.08-20.48-46.08-46.08s20.48-46.08 46.08-46.08h435.2c25.6 0 46.08 20.48 46.08 46.08s-20.48 46.08-40.96 46.08z" p-id="2583"></path></svg>