<?xml version="1.0" standalone="no"?><!DOCTYPE svg PUBLIC "-//W3C//DTD SVG 1.1//EN" "http://www.w3.org/Graphics/SVG/1.1/DTD/svg11.dtd"><svg fill="currentColor" t="1727312670691" class="svg-icon" viewBox="0 0 1024 1024" version="1.1" xmlns="http://www.w3.org/2000/svg" p-id="2731" xmlns:xlink="http://www.w3.org/1999/xlink" width="64" height="64"><path d="M512 298.666667a170.666667 170.666667 0 1 0 341.333333 0 170.666667 170.666667 0 0 0-341.333333 0z m85.418667-1.237334A85.333333 85.333333 0 0 1 768 298.666667v3.84a85.333333 85.333333 0 0 1-170.581333-5.077334zM170.666667 426.666667a170.666667 170.666667 0 1 0 341.333333 0 170.666667 170.666667 0 0 0-341.333333 0z m85.418666-1.237334A85.333333 85.333333 0 0 1 426.666667 426.666667v3.84a85.333333 85.333333 0 0 1-170.581334-5.077334z m264.789334 288.085334A255.232 255.232 0 0 1 597.333333 896h-85.333333a170.666667 170.666667 0 0 0-341.333333 0H85.333333a256 256 0 0 1 363.52-232.405333A256.042667 256.042667 0 0 1 938.666667 768h-85.333334a170.666667 170.666667 0 0 0-332.458666-54.485333z" p-id="2732"></path></svg>