<?xml version="1.0" standalone="no"?><!DOCTYPE svg PUBLIC "-//W3C//DTD SVG 1.1//EN" "http://www.w3.org/Graphics/SVG/1.1/DTD/svg11.dtd"><svg fill="currentColor" t="1727235539805" class="svg-icon" viewBox="0 0 1386 1024" version="1.1" xmlns="http://www.w3.org/2000/svg" p-id="2493" xmlns:xlink="http://www.w3.org/1999/xlink" width="86.625" height="64"><path d="M797.04298 555.579003l239.758796 239.758796c61.179831 61.179831-29.711489 153.724659-92.5965 92.596501L706.048316 646.547831zM755.705257 934.23255c0 11.626235-11.626235 23.149125-23.149125 23.149125H23.149125c-11.626235 1.653509-23.149125-11.626235-23.149125-23.149125v-909.429916C0 13.176399 11.626235 0 23.149125 0H322.434243c11.626235 0 23.149125 0 23.149125 23.149125s-11.626235 23.149125-23.149125 23.149125H47.951759v861.478157h661.403575V818.486924c0-11.626235 0-23.149125 23.149125-23.149125s23.149125 11.626235 23.149126 23.149125z m0 0" p-id="2494"></path><path d="M527.469351 102.517554c-152.122822 0-274.482484 124.01317-274.482483 274.482484s124.01317 274.482484 274.482483 274.482484 276.135993-122.359661 276.135993-274.482484-124.01317-274.482484-276.135993-274.482484z m1.653509-51.258777C709.355334 51.258777 856.465958 198.421073 856.465958 378.653547S709.355334 706.048316 529.12286 706.048316 201.72809 558.886021 201.72809 378.653547 348.890386 51.258777 529.12286 51.258777z m0 0" p-id="2495"></path><path d="M363.771966 251.333359c18.188598-14.88158 39.684215-28.109652 62.83334-36.377197s46.29825-13.228072 71.049212-13.228072c114.092117 0 208.342126 92.596501 208.342126 208.342127 0 24.802634-4.960527 47.951759-13.228071 71.049212s-19.738763 44.696413-36.325525 62.885012c-8.267545 9.921054-14.88158 18.188598-33.070178 3.307017s-9.921054-24.802634-3.307018-33.070178a152.897905 152.897905 0 0 0 28.109652-47.95176 158.736858 158.736858 0 0 0 9.921053-54.565794c0-87.635974-71.049212-160.390367-160.390367-160.390367-18.188598 0-38.030706 3.307018-54.565795 9.921053A152.897905 152.897905 0 0 0 395.188636 289.364064c-9.921054 8.267545-18.188598 14.88158-33.070179-3.307018-16.535089-19.842107-6.614036-26.456143 1.653509-34.723687z m0 0" p-id="2496"></path></svg>