<?xml version="1.0" standalone="no"?><!DOCTYPE svg PUBLIC "-//W3C//DTD SVG 1.1//EN" "http://www.w3.org/Graphics/SVG/1.1/DTD/svg11.dtd"><svg fill="currentColor" t="1727312656464" class="svg-icon" viewBox="0 0 1024 1024" version="1.1" xmlns="http://www.w3.org/2000/svg" p-id="2281" xmlns:xlink="http://www.w3.org/1999/xlink" width="64" height="64"><path d="M512 460.8C404.48 460.8 317.44 373.76 317.44 271.36S404.48 76.8 512 76.8s194.56 87.04 194.56 194.56S619.52 460.8 512 460.8z m0-307.2C450.56 153.6 399.36 204.8 399.36 271.36s51.2 112.64 112.64 112.64c61.44 0 112.64-51.2 112.64-112.64S573.44 153.6 512 153.6zM256 440.32c-5.12 0-15.36 0-20.48-5.12-56.32-35.84-92.16-97.28-92.16-163.84 0-61.44 30.72-122.88 81.92-158.72 20.48-15.36 40.96-10.24 56.32 10.24 10.24 15.36 10.24 40.96-10.24 56.32-30.72 20.48-51.2 56.32-51.2 92.16 0 40.96 20.48 76.8 56.32 97.28 20.48 10.24 25.6 35.84 15.36 51.2-10.24 15.36-20.48 20.48-35.84 20.48zM778.24 435.2c-10.24 0-25.6-5.12-30.72-15.36-10.24-15.36-10.24-40.96 10.24-56.32 30.72-20.48 51.2-56.32 51.2-92.16s-20.48-71.68-51.2-92.16c-15.36-10.24-20.48-35.84-10.24-56.32 10.24-15.36 35.84-20.48 56.32-10.24 51.2 35.84 81.92 97.28 81.92 158.72s-30.72 122.88-81.92 158.72c-10.24 5.12-20.48 5.12-25.6 5.12zM778.24 947.2H245.76c-20.48 0-40.96-15.36-40.96-40.96v-46.08c0-87.04 0-133.12 15.36-168.96 20.48-51.2 61.44-92.16 117.76-117.76 40.96-10.24 87.04-10.24 174.08-10.24s133.12 0 168.96 15.36c51.2 20.48 92.16 61.44 117.76 117.76 15.36 40.96 15.36 81.92 15.36 168.96v46.08c0 20.48-15.36 35.84-35.84 35.84zM286.72 870.4h450.56v-5.12c0-76.8 0-117.76-10.24-138.24-15.36-35.84-40.96-61.44-71.68-71.68-25.6-10.24-61.44-10.24-138.24-10.24s-117.76 0-138.24 10.24c-35.84 15.36-61.44 40.96-71.68 71.68-20.48 20.48-20.48 61.44-20.48 143.36zM952.32 947.2c-20.48 0-40.96-15.36-40.96-40.96v-25.6c0-92.16 0-138.24-15.36-168.96-15.36-25.6-35.84-46.08-61.44-61.44-20.48-10.24-25.6-35.84-15.36-51.2 10.24-20.48 30.72-25.6 51.2-15.36 40.96 20.48 71.68 51.2 92.16 92.16 25.6 46.08 25.6 97.28 25.6 204.8v25.6c5.12 25.6-15.36 40.96-35.84 40.96zM71.68 947.2c-20.48 0-40.96-15.36-40.96-40.96v-25.6c0-102.4 0-158.72 25.6-204.8 20.48-40.96 51.2-71.68 92.16-92.16 20.48-10.24 40.96 0 51.2 15.36s0 40.96-15.36 51.2c-25.6 15.36-46.08 35.84-61.44 61.44-15.36 30.72-15.36 76.8-15.36 168.96v25.6c5.12 25.6-15.36 40.96-35.84 40.96z" p-id="2282"></path></svg>